<?xml version="1.0" encoding="utf-8"?>
<!-- Generator: Adobe Illustrator 16.0.0, SVG Export Plug-In . SVG Version: 6.00 Build 0)  -->
<!DOCTYPE svg PUBLIC "-//W3C//DTD SVG 1.1//EN" "http://www.w3.org/Graphics/SVG/1.1/DTD/svg11.dtd">
<svg version="1.1" id="Layer_1" xmlns="http://www.w3.org/2000/svg" xmlns:xlink="http://www.w3.org/1999/xlink" x="0px" y="0px"
	 width="885.783px" height="392.808px" viewBox="0 0 885.783 392.808" enable-background="new 0 0 885.783 392.808"
	 xml:space="preserve">
	  <mask id="slider_mask" maskUnits="objectBoundingBox">
<path fill-rule="evenodd" clip-rule="evenodd" fill="#00AEEF" d="M19.724,18.095c0,0,57.056,2.614,102.063,1.579
	c39.031-0.898,61.74,12.053,120.808,10.694c83.498-1.92,174.927-13.306,267.527-15.436C576.742,13.4,651.831,1.359,707.039,0.089
	c48.111-1.107,78.522,8.509,108.38,7.822c32.333-0.744,51.339-1.181,51.339-1.181c2.532-0.058,4.629,2.203,4.683,5.05
	c0,0,12.642,85.237,14.284,170.899c0.911,47.375-9.18,95.054-8.548,128.101c0.517,26.946,0.852,44.335,0.852,44.335
	c0.054,2.847-1.953,5.202-4.483,5.26c0,0-69.635,10.886-170.349,13.202c-46.064,1.061-99.493-6.996-154.201-5.739
	c-74.978,1.725-154.575-4.696-228.441-2.998c-27.865,0.643-54.779,9.512-80.519,10.105c-45.083,1.036-110.558,16.984-144.578,17.766
	c-60.567,1.393-74.538-12.729-74.538-12.729c-2.531,0.061-4.629-2.2-4.683-5.047c0,0,8.748-22.115,8.12-54.855
	c-0.588-30.647-10.526-70.578-11.305-111.142c-0.686-35.769-12.44-74.708-13.019-104.912C-0.81,60.187,15.238,23.355,15.238,23.355
	C15.184,20.509,17.192,18.153,19.724,18.095z"/>
	</mask>
</svg>
