<?xml version="1.0" encoding="utf-8"?>
<!-- Generator: Adobe Illustrator 16.0.0, SVG Export Plug-In . SVG Version: 6.00 Build 0)  -->
<!DOCTYPE svg PUBLIC "-//W3C//DTD SVG 1.1//EN" "http://www.w3.org/Graphics/SVG/1.1/DTD/svg11.dtd">
<svg version="1.1" id="Layer_1" xmlns="http://www.w3.org/2000/svg" xmlns:xlink="http://www.w3.org/1999/xlink" x="0px" y="0px"
	 width="365.093px" height="357.853px" viewBox="0 0 365.093 357.853" enable-background="new 0 0 365.093 357.853"
	 xml:space="preserve">
	 <mask id="services_mask" maskUnits="objectBoundingBox"> 
<path fill-rule="evenodd" clip-rule="evenodd" fill="#FFFFFF" d="M13.173,4.853c0,0,16.18,6.065,39.284,6.065
	c28.051,0,67.772-11.711,109.668-6.065C234.146,14.557,279.458,0,317.625,0c24.051,0,39.283,4.853,39.283,4.853
	c4.521,0,8.185,2.715,8.185,6.065c0,0-9.821,16.107-9.821,41.244c0,22.114,9.821,51.218,9.821,82.488
	c0,53.964-6.548,114.383-6.548,156.484c0,31.968,6.548,53.374,6.548,53.374c0,3.351-3.664,6.066-8.185,6.066
	c0,0-13.348,6.065-39.283,6.065c-27.777,0-69.512,1.213-109.668,1.213c-68.089,0-123.059-10.919-157.137-10.919
	c-12.393,0-37.647,3.641-37.647,3.641c-4.521,0-8.185-2.716-8.185-6.066c0,0,14.731-36.281,0-84.914
	c-14.246-47.028,6.547-108.53,6.547-157.697c0-51.649-6.547-90.979-6.547-90.979C4.989,7.568,8.653,4.853,13.173,4.853z"/>
	</mask>
</svg>
