<?xml version="1.0" encoding="utf-8"?>
<!-- Generator: Adobe Illustrator 16.0.0, SVG Export Plug-In . SVG Version: 6.00 Build 0)  -->
<!DOCTYPE svg PUBLIC "-//W3C//DTD SVG 1.1//EN" "http://www.w3.org/Graphics/SVG/1.1/DTD/svg11.dtd">
<svg version="1.1" id="Layer_1" xmlns="http://www.w3.org/2000/svg" xmlns:xlink="http://www.w3.org/1999/xlink" x="0px" y="0px"
	 width="296.243px" height="294.838px" viewBox="0 0 296.243 294.838" enable-background="new 0 0 296.243 294.838"
	 xml:space="preserve">
	 <mask id="thumb_mask" maskUnits="objectBoundingBox">
<path fill-rule="evenodd" clip-rule="evenodd" fill="#FFFFFF" d="M7.154,3.014c0,0,13.137,5.055,31.755,5.13
	c22.606,0.092,54.427-9.439,88.28-4.646c58.195,8.239,94.477-3.621,125.233-3.497c19.383,0.078,31.737,4.13,31.737,4.13
	c3.642,0.015,6.639,2.267,6.692,5.03c0,0-7.654,13.254-7.247,33.988c0.356,18.242,8.741,42.279,9.246,68.073
	c0.87,44.513-3.429,94.33-2.748,129.058c0.516,26.37,6.138,44.049,6.138,44.049c0.054,2.764-2.854,4.992-6.498,4.977
	c0,0-10.659,4.96-31.559,4.876c-22.385-0.092-55.995,0.772-88.359,0.643c-54.87-0.22-99.344-9.405-126.807-9.517
	c-9.987-0.04-30.281,2.881-30.281,2.881c-3.643-0.016-6.639-2.268-6.693-5.031c0,0,11.286-29.88-1.371-70.042
	c-12.24-38.839,3.523-89.503,2.729-130.058C6.568,40.452,0.657,7.99,0.657,7.99C0.603,5.227,3.512,2.998,7.154,3.014z"/>
	</mask>
</svg>
