<?xml version="1.0" encoding="utf-8"?>
<!-- Generator: Adobe Illustrator 16.0.0, SVG Export Plug-In . SVG Version: 6.00 Build 0)  -->
<!DOCTYPE svg PUBLIC "-//W3C//DTD SVG 1.1//EN" "http://www.w3.org/Graphics/SVG/1.1/DTD/svg11.dtd">
<svg version="1.1" id="Layer_1" xmlns="http://www.w3.org/2000/svg" xmlns:xlink="http://www.w3.org/1999/xlink" x="0px" y="0px"
	 width="887.539px" height="391.388px" viewBox="0 0 887.539 391.388" enable-background="new 0 0 887.539 391.388"
	 xml:space="preserve">
	 <mask id="blog_mask" maskUnits="objectBoundingBox">
<path fill-rule="evenodd" clip-rule="evenodd" fill="#FFFFFF" d="M19.762,18.029c0,0,57.17,2.605,102.266,1.573
	c39.107-0.895,61.863,12.01,121.048,10.657C326.739,28.345,418.35,17,511.132,14.878c66.752-1.527,141.99-13.524,197.305-14.79
	c48.209-1.103,78.684,8.478,108.598,7.794c32.398-0.741,51.441-1.176,51.441-1.176c2.535-0.058,4.637,2.194,4.691,5.031
	c0,0,12.668,84.929,14.313,170.28c0.912,47.203-9.201,94.711-8.564,127.639c0.52,26.85,0.854,44.175,0.854,44.175
	c0.055,2.837-1.959,5.184-4.494,5.24c0,0-69.771,10.846-170.686,13.154c-46.154,1.056-99.689-6.971-154.506-5.717
	c-75.127,1.719-154.882-4.68-228.894-2.986c-27.921,0.639-54.888,9.478-80.68,10.067c-45.172,1.032-110.777,16.922-144.864,17.701
	C34.959,392.68,20.96,378.61,20.96,378.61c-2.538,0.059-4.638-2.194-4.692-5.031c0,0,8.765-22.033,8.135-54.657
	c-0.588-30.535-10.547-70.321-11.327-110.738C12.39,172.543,0.613,133.746,0.032,103.649c-0.843-43.68,15.236-80.379,15.236-80.379
	C15.214,20.434,17.225,18.087,19.762,18.029z"/>
	</mask>
</svg>
