<?xml version="1.0" encoding="utf-8"?>
<!-- Generator: Adobe Illustrator 16.0.0, SVG Export Plug-In . SVG Version: 6.00 Build 0)  -->
<!DOCTYPE svg PUBLIC "-//W3C//DTD SVG 1.1//EN" "http://www.w3.org/Graphics/SVG/1.1/DTD/svg11.dtd">
<svg version="1.1" id="Layer_1" xmlns="http://www.w3.org/2000/svg" xmlns:xlink="http://www.w3.org/1999/xlink" x="0px" y="0px"
	 width="100%" height="427" viewBox="0 0 887.735 392.596" enable-background="new 0 0 887.735 392.596"
	 xml:space="preserve">
	 <mask id="slider_mask" maskUnits="objectBoundingBox">
<path fill-rule="evenodd" clip-rule="evenodd" fill="#FFFFFF" d="M19.768,18.086c0,0,57.183,2.612,102.288,1.578
	c39.116-0.897,61.876,12.046,121.075,10.689c83.682-1.919,175.313-13.299,268.117-15.428c66.765-1.531,142.02-13.567,197.348-14.836
	c48.219-1.105,78.699,8.505,108.618,7.819c32.408-0.744,51.455-1.181,51.455-1.181c2.537-0.058,4.638,2.202,4.693,5.047
	c0,0,12.669,85.191,14.316,170.806c0.91,47.35-9.203,95.003-8.567,128.033c0.518,26.933,0.853,44.311,0.853,44.311
	c0.055,2.845-1.958,5.199-4.495,5.257c0,0-69.786,10.88-170.723,13.194c-46.163,1.06-99.71-6.991-154.54-5.734
	c-75.144,1.725-154.916-4.693-228.945-2.995c-27.927,0.64-54.899,9.506-80.697,10.097c-45.182,1.036-110.801,16.977-144.896,17.757
	c-60.7,1.393-74.702-12.719-74.702-12.719c-2.538,0.059-4.639-2.201-4.693-5.048c0,0,8.767-22.102,8.138-54.824
	c-0.59-30.631-10.55-70.54-11.33-111.083C12.392,173.076,0.613,134.16,0.032,103.97c-0.843-43.814,15.24-80.627,15.24-80.627
	C15.218,20.498,17.23,18.144,19.768,18.086z"/>
	</mask>
</svg>
