<?xml version="1.0" encoding="utf-8"?>
<!-- Generator: Adobe Illustrator 16.0.0, SVG Export Plug-In . SVG Version: 6.00 Build 0)  -->
<!DOCTYPE svg PUBLIC "-//W3C//DTD SVG 1.1//EN" "http://www.w3.org/Graphics/SVG/1.1/DTD/svg11.dtd">
<svg version="1.1" id="Layer_1" xmlns="http://www.w3.org/2000/svg" xmlns:xlink="http://www.w3.org/1999/xlink" x="0px" y="0px"
	 width="147px" height="147px" viewBox="0 0 147 147" enable-background="new 0 0 147 147" xml:space="preserve">
	 <mask id="small_mask" maskUnits="objectBoundingBox"> 
<path fill-rule="evenodd" clip-rule="evenodd" fill="#FFFFFF" d="M3.564,1.501c0,0,6.543,2.519,15.817,2.557
	c11.26,0.045,27.111-4.703,43.974-2.315c28.988,4.104,47.06-1.804,62.38-1.742c9.656,0.038,15.81,2.057,15.81,2.057
	c1.813,0.008,3.306,1.129,3.333,2.506c0,0-3.812,6.604-3.611,16.935c0.179,9.089,4.354,21.065,4.607,33.917
	c0.434,22.18-1.707,47-1.369,64.303c0.256,13.139,3.057,21.947,3.057,21.947c0.027,1.378-1.421,2.487-3.236,2.479
	c0,0-5.309,2.471-15.72,2.429c-11.15-0.044-27.893,0.388-44.012,0.321c-27.333-0.11-49.486-4.687-63.166-4.742
	c-4.975-0.021-15.083,1.437-15.083,1.437c-1.815-0.009-3.308-1.13-3.334-2.508c0,0,5.622-14.886-0.683-34.897
	c-6.097-19.354,1.755-44.596,1.359-64.802C3.271,20.155,0.327,3.98,0.327,3.98C0.3,2.603,1.749,1.493,3.564,1.501z"/>
	</mask>
</svg>
